<mxfile host="app.diagrams.net" modified="2021-03-05T11:21:38.277Z" agent="5.0 (Macintosh; Intel Mac OS X 11_2_1) AppleWebKit/537.36 (KHTML, like Gecko) Chrome/88.0.4324.192 Safari/537.36" etag="t0sEkhRMjF_uugE6xzbM" version="14.4.4" type="github">
  <diagram id="mg79W_jOqBWcHlFa8q99" name="Page-1">
    <mxGraphModel dx="4411" dy="810" grid="1" gridSize="10" guides="1" tooltips="1" connect="1" arrows="1" fold="1" page="1" pageScale="1" pageWidth="3300" pageHeight="4681" math="0" shadow="0">
      <root>
        <mxCell id="0" />
        <mxCell id="1" parent="0" />
        <mxCell id="tzSfl47Rc7GnbTvQKxjG-3" value="局部变量表" style="rounded=0;whiteSpace=wrap;html=1;fillColor=#b1ddf0;strokeColor=#10739e;" vertex="1" parent="1">
          <mxGeometry x="160" y="40" width="80" height="40" as="geometry" />
        </mxCell>
        <mxCell id="tzSfl47Rc7GnbTvQKxjG-4" value="操作数栈" style="rounded=0;whiteSpace=wrap;html=1;fillColor=#fad7ac;strokeColor=#b46504;" vertex="1" parent="1">
          <mxGeometry x="240" y="40" width="80" height="40" as="geometry" />
        </mxCell>
        <mxCell id="tzSfl47Rc7GnbTvQKxjG-5" value="0" style="rounded=0;whiteSpace=wrap;html=1;fillColor=#fad7ac;strokeColor=#b46504;" vertex="1" parent="1">
          <mxGeometry x="240" y="80" width="80" height="40" as="geometry" />
        </mxCell>
        <mxCell id="tzSfl47Rc7GnbTvQKxjG-6" value="局部变量表" style="rounded=0;whiteSpace=wrap;html=1;fillColor=#b1ddf0;strokeColor=#10739e;" vertex="1" parent="1">
          <mxGeometry x="440" y="40" width="80" height="40" as="geometry" />
        </mxCell>
        <mxCell id="tzSfl47Rc7GnbTvQKxjG-7" value="操作数栈" style="rounded=0;whiteSpace=wrap;html=1;fillColor=#fad7ac;strokeColor=#b46504;" vertex="1" parent="1">
          <mxGeometry x="520" y="40" width="80" height="40" as="geometry" />
        </mxCell>
        <mxCell id="tzSfl47Rc7GnbTvQKxjG-9" value="0" style="rounded=0;whiteSpace=wrap;html=1;fillColor=#b1ddf0;strokeColor=#10739e;" vertex="1" parent="1">
          <mxGeometry x="440" y="80" width="80" height="40" as="geometry" />
        </mxCell>
        <mxCell id="tzSfl47Rc7GnbTvQKxjG-10" value="局部变量表" style="rounded=0;whiteSpace=wrap;html=1;fillColor=#b1ddf0;strokeColor=#10739e;" vertex="1" parent="1">
          <mxGeometry x="640" y="40" width="80" height="40" as="geometry" />
        </mxCell>
        <mxCell id="tzSfl47Rc7GnbTvQKxjG-11" value="操作数栈" style="rounded=0;whiteSpace=wrap;html=1;fillColor=#fad7ac;strokeColor=#b46504;" vertex="1" parent="1">
          <mxGeometry x="720" y="40" width="80" height="40" as="geometry" />
        </mxCell>
        <mxCell id="tzSfl47Rc7GnbTvQKxjG-12" value="1" style="rounded=0;whiteSpace=wrap;html=1;fillColor=#b1ddf0;strokeColor=#10739e;" vertex="1" parent="1">
          <mxGeometry x="640" y="80" width="80" height="40" as="geometry" />
        </mxCell>
        <mxCell id="tzSfl47Rc7GnbTvQKxjG-14" value="0" style="rounded=0;whiteSpace=wrap;html=1;fillColor=#fad7ac;strokeColor=#b46504;" vertex="1" parent="1">
          <mxGeometry x="720" y="80" width="80" height="40" as="geometry" />
        </mxCell>
        <mxCell id="tzSfl47Rc7GnbTvQKxjG-15" value="局部变量表" style="rounded=0;whiteSpace=wrap;html=1;fillColor=#b1ddf0;strokeColor=#10739e;" vertex="1" parent="1">
          <mxGeometry x="840" y="40" width="80" height="40" as="geometry" />
        </mxCell>
        <mxCell id="tzSfl47Rc7GnbTvQKxjG-16" value="操作数栈" style="rounded=0;whiteSpace=wrap;html=1;fillColor=#fad7ac;strokeColor=#b46504;" vertex="1" parent="1">
          <mxGeometry x="920" y="40" width="80" height="40" as="geometry" />
        </mxCell>
        <mxCell id="tzSfl47Rc7GnbTvQKxjG-17" value="0" style="rounded=0;whiteSpace=wrap;html=1;fillColor=#b1ddf0;strokeColor=#10739e;" vertex="1" parent="1">
          <mxGeometry x="840" y="80" width="80" height="40" as="geometry" />
        </mxCell>
        <mxCell id="tzSfl47Rc7GnbTvQKxjG-18" value="0" style="rounded=0;whiteSpace=wrap;html=1;fillColor=#fad7ac;strokeColor=#b46504;" vertex="1" parent="1">
          <mxGeometry x="920" y="80" width="80" height="40" as="geometry" />
        </mxCell>
        <mxCell id="tzSfl47Rc7GnbTvQKxjG-19" value="" style="endArrow=classic;html=1;exitX=1;exitY=0;exitDx=0;exitDy=0;entryX=0;entryY=0;entryDx=0;entryDy=0;" edge="1" parent="1" source="tzSfl47Rc7GnbTvQKxjG-5" target="tzSfl47Rc7GnbTvQKxjG-9">
          <mxGeometry relative="1" as="geometry">
            <mxPoint x="280" y="190" as="sourcePoint" />
            <mxPoint x="380" y="190" as="targetPoint" />
          </mxGeometry>
        </mxCell>
        <mxCell id="tzSfl47Rc7GnbTvQKxjG-20" value="i = i++" style="edgeLabel;resizable=0;html=1;align=center;verticalAlign=middle;" connectable="0" vertex="1" parent="tzSfl47Rc7GnbTvQKxjG-19">
          <mxGeometry relative="1" as="geometry">
            <mxPoint x="-9.91" y="-10.059999999999999" as="offset" />
          </mxGeometry>
        </mxCell>
        <mxCell id="tzSfl47Rc7GnbTvQKxjG-33" value="局部变量表" style="rounded=0;whiteSpace=wrap;html=1;fillColor=#b1ddf0;strokeColor=#10739e;" vertex="1" parent="1">
          <mxGeometry x="-40" y="40" width="80" height="40" as="geometry" />
        </mxCell>
        <mxCell id="tzSfl47Rc7GnbTvQKxjG-34" value="操作数栈" style="rounded=0;whiteSpace=wrap;html=1;fillColor=#fad7ac;strokeColor=#b46504;" vertex="1" parent="1">
          <mxGeometry x="40" y="40" width="80" height="40" as="geometry" />
        </mxCell>
        <mxCell id="tzSfl47Rc7GnbTvQKxjG-35" value="iconst_0" style="text;whiteSpace=wrap;html=1;" vertex="1" parent="1">
          <mxGeometry x="220" y="140" width="70" height="30" as="geometry" />
        </mxCell>
        <mxCell id="tzSfl47Rc7GnbTvQKxjG-36" value="istore_1" style="text;html=1;align=center;verticalAlign=middle;resizable=0;points=[];autosize=1;" vertex="1" parent="1">
          <mxGeometry x="470" y="140" width="60" height="20" as="geometry" />
        </mxCell>
        <mxCell id="tzSfl47Rc7GnbTvQKxjG-37" value="局部变量表" style="rounded=0;whiteSpace=wrap;html=1;fillColor=#b1ddf0;strokeColor=#10739e;" vertex="1" parent="1">
          <mxGeometry x="200" y="740" width="80" height="20" as="geometry" />
        </mxCell>
        <mxCell id="tzSfl47Rc7GnbTvQKxjG-38" value="操作数栈" style="rounded=0;whiteSpace=wrap;html=1;fillColor=#fad7ac;strokeColor=#b46504;" vertex="1" parent="1">
          <mxGeometry x="200" y="820" width="80" height="20" as="geometry" />
        </mxCell>
        <mxCell id="tzSfl47Rc7GnbTvQKxjG-44" value="局部变量表" style="rounded=0;whiteSpace=wrap;html=1;fillColor=#b1ddf0;strokeColor=#10739e;" vertex="1" parent="1">
          <mxGeometry x="360" y="740" width="80" height="20" as="geometry" />
        </mxCell>
        <mxCell id="tzSfl47Rc7GnbTvQKxjG-45" value="操作数栈" style="rounded=0;whiteSpace=wrap;html=1;fillColor=#fad7ac;strokeColor=#b46504;" vertex="1" parent="1">
          <mxGeometry x="360" y="820" width="80" height="20" as="geometry" />
        </mxCell>
        <mxCell id="tzSfl47Rc7GnbTvQKxjG-47" value="0" style="rounded=0;whiteSpace=wrap;html=1;fillColor=#fad7ac;strokeColor=#b46504;" vertex="1" parent="1">
          <mxGeometry x="360" y="840" width="80" height="20" as="geometry" />
        </mxCell>
        <mxCell id="tzSfl47Rc7GnbTvQKxjG-48" value="局部变量表" style="rounded=0;whiteSpace=wrap;html=1;fillColor=#b1ddf0;strokeColor=#10739e;" vertex="1" parent="1">
          <mxGeometry x="520" y="740" width="80" height="20" as="geometry" />
        </mxCell>
        <mxCell id="tzSfl47Rc7GnbTvQKxjG-49" value="操作数栈" style="rounded=0;whiteSpace=wrap;html=1;fillColor=#fad7ac;strokeColor=#b46504;" vertex="1" parent="1">
          <mxGeometry x="520" y="820" width="80" height="20" as="geometry" />
        </mxCell>
        <mxCell id="tzSfl47Rc7GnbTvQKxjG-50" value="0" style="rounded=0;whiteSpace=wrap;html=1;fillColor=none;dashed=1;" vertex="1" parent="1">
          <mxGeometry x="520" y="840" width="80" height="20" as="geometry" />
        </mxCell>
        <mxCell id="tzSfl47Rc7GnbTvQKxjG-51" value="0" style="rounded=0;whiteSpace=wrap;html=1;fillColor=#b1ddf0;strokeColor=#10739e;" vertex="1" parent="1">
          <mxGeometry x="520" y="760" width="80" height="20" as="geometry" />
        </mxCell>
        <mxCell id="tzSfl47Rc7GnbTvQKxjG-52" value="" style="curved=1;endArrow=classic;html=1;exitX=0;exitY=0.5;exitDx=0;exitDy=0;entryX=0;entryY=0.5;entryDx=0;entryDy=0;fillColor=#fad7ac;strokeColor=#b46504;" edge="1" parent="1" source="tzSfl47Rc7GnbTvQKxjG-50" target="tzSfl47Rc7GnbTvQKxjG-51">
          <mxGeometry width="50" height="50" relative="1" as="geometry">
            <mxPoint x="570" y="970" as="sourcePoint" />
            <mxPoint x="510" y="770" as="targetPoint" />
            <Array as="points">
              <mxPoint x="480" y="830" />
              <mxPoint x="490" y="780" />
            </Array>
          </mxGeometry>
        </mxCell>
        <mxCell id="tzSfl47Rc7GnbTvQKxjG-53" value="局部变量表" style="rounded=0;whiteSpace=wrap;html=1;fillColor=#b1ddf0;strokeColor=#10739e;" vertex="1" parent="1">
          <mxGeometry x="680" y="740" width="80" height="20" as="geometry" />
        </mxCell>
        <mxCell id="tzSfl47Rc7GnbTvQKxjG-54" value="操作数栈" style="rounded=0;whiteSpace=wrap;html=1;fillColor=#fad7ac;strokeColor=#b46504;" vertex="1" parent="1">
          <mxGeometry x="680" y="820" width="80" height="20" as="geometry" />
        </mxCell>
        <mxCell id="tzSfl47Rc7GnbTvQKxjG-55" value="0" style="rounded=0;whiteSpace=wrap;html=1;fillColor=#fad7ac;strokeColor=#b46504;" vertex="1" parent="1">
          <mxGeometry x="680" y="840" width="80" height="20" as="geometry" />
        </mxCell>
        <mxCell id="tzSfl47Rc7GnbTvQKxjG-56" value="0" style="rounded=0;whiteSpace=wrap;html=1;fillColor=#b1ddf0;strokeColor=#10739e;" vertex="1" parent="1">
          <mxGeometry x="680" y="760" width="80" height="20" as="geometry" />
        </mxCell>
        <mxCell id="tzSfl47Rc7GnbTvQKxjG-57" value="" style="curved=1;endArrow=classic;html=1;exitX=0;exitY=0.25;exitDx=0;exitDy=0;fillColor=#fad7ac;strokeColor=#b46504;" edge="1" parent="1" source="tzSfl47Rc7GnbTvQKxjG-56">
          <mxGeometry width="50" height="50" relative="1" as="geometry">
            <mxPoint x="730" y="970" as="sourcePoint" />
            <mxPoint x="680" y="850" as="targetPoint" />
            <Array as="points">
              <mxPoint x="640" y="790" />
              <mxPoint x="640" y="840" />
            </Array>
          </mxGeometry>
        </mxCell>
        <mxCell id="tzSfl47Rc7GnbTvQKxjG-58" value="&lt;b&gt;&lt;font style=&quot;font-size: 14px&quot;&gt;iconst_0&lt;/font&gt;&lt;/b&gt;" style="text;html=1;align=center;verticalAlign=middle;resizable=0;points=[];autosize=1;" vertex="1" parent="1">
          <mxGeometry x="365" y="700" width="70" height="20" as="geometry" />
        </mxCell>
        <mxCell id="tzSfl47Rc7GnbTvQKxjG-59" value="&lt;font style=&quot;font-size: 14px&quot;&gt;&lt;b&gt;istore_1&lt;/b&gt;&lt;/font&gt;" style="text;html=1;align=center;verticalAlign=middle;resizable=0;points=[];autosize=1;" vertex="1" parent="1">
          <mxGeometry x="525" y="700" width="70" height="20" as="geometry" />
        </mxCell>
        <mxCell id="tzSfl47Rc7GnbTvQKxjG-60" value="&lt;font style=&quot;font-size: 14px&quot;&gt;&lt;b&gt;iload_1&lt;/b&gt;&lt;/font&gt;" style="text;html=1;align=center;verticalAlign=middle;resizable=0;points=[];autosize=1;" vertex="1" parent="1">
          <mxGeometry x="695" y="700" width="60" height="20" as="geometry" />
        </mxCell>
        <mxCell id="tzSfl47Rc7GnbTvQKxjG-61" value="局部变量表" style="rounded=0;whiteSpace=wrap;html=1;fillColor=#b1ddf0;strokeColor=#10739e;" vertex="1" parent="1">
          <mxGeometry x="840" y="740" width="80" height="20" as="geometry" />
        </mxCell>
        <mxCell id="tzSfl47Rc7GnbTvQKxjG-62" value="操作数栈" style="rounded=0;whiteSpace=wrap;html=1;fillColor=#fad7ac;strokeColor=#b46504;" vertex="1" parent="1">
          <mxGeometry x="840" y="820" width="80" height="20" as="geometry" />
        </mxCell>
        <mxCell id="tzSfl47Rc7GnbTvQKxjG-63" value="0" style="rounded=0;whiteSpace=wrap;html=1;fillColor=#fad7ac;strokeColor=#b46504;" vertex="1" parent="1">
          <mxGeometry x="840" y="840" width="80" height="20" as="geometry" />
        </mxCell>
        <mxCell id="tzSfl47Rc7GnbTvQKxjG-64" value="1" style="rounded=0;whiteSpace=wrap;html=1;fillColor=#b1ddf0;strokeColor=#10739e;" vertex="1" parent="1">
          <mxGeometry x="840" y="760" width="80" height="20" as="geometry" />
        </mxCell>
        <mxCell id="tzSfl47Rc7GnbTvQKxjG-66" value="&lt;font style=&quot;font-size: 14px&quot;&gt;&lt;b&gt;iinc&amp;nbsp; 1, 1&lt;/b&gt;&lt;/font&gt;" style="text;html=1;align=center;verticalAlign=middle;resizable=0;points=[];autosize=1;" vertex="1" parent="1">
          <mxGeometry x="850" y="700" width="70" height="20" as="geometry" />
        </mxCell>
        <mxCell id="tzSfl47Rc7GnbTvQKxjG-67" value="局部变量表" style="rounded=0;whiteSpace=wrap;html=1;fillColor=#b1ddf0;strokeColor=#10739e;" vertex="1" parent="1">
          <mxGeometry x="1000" y="740" width="80" height="20" as="geometry" />
        </mxCell>
        <mxCell id="tzSfl47Rc7GnbTvQKxjG-68" value="操作数栈" style="rounded=0;whiteSpace=wrap;html=1;fillColor=#fad7ac;strokeColor=#b46504;" vertex="1" parent="1">
          <mxGeometry x="1000" y="820" width="80" height="20" as="geometry" />
        </mxCell>
        <mxCell id="tzSfl47Rc7GnbTvQKxjG-69" value="0" style="rounded=0;whiteSpace=wrap;html=1;fillColor=none;dashed=1;" vertex="1" parent="1">
          <mxGeometry x="1000" y="840" width="80" height="20" as="geometry" />
        </mxCell>
        <mxCell id="tzSfl47Rc7GnbTvQKxjG-70" value="0" style="rounded=0;whiteSpace=wrap;html=1;fillColor=#b1ddf0;strokeColor=#10739e;" vertex="1" parent="1">
          <mxGeometry x="1000" y="760" width="80" height="20" as="geometry" />
        </mxCell>
        <mxCell id="tzSfl47Rc7GnbTvQKxjG-71" value="" style="curved=1;endArrow=classic;html=1;exitX=0;exitY=0.5;exitDx=0;exitDy=0;entryX=0;entryY=0.5;entryDx=0;entryDy=0;fillColor=#fad7ac;strokeColor=#b46504;" edge="1" parent="1" source="tzSfl47Rc7GnbTvQKxjG-69" target="tzSfl47Rc7GnbTvQKxjG-70">
          <mxGeometry width="50" height="50" relative="1" as="geometry">
            <mxPoint x="1050" y="970" as="sourcePoint" />
            <mxPoint x="990" y="770" as="targetPoint" />
            <Array as="points">
              <mxPoint x="960" y="830" />
              <mxPoint x="970" y="780" />
            </Array>
          </mxGeometry>
        </mxCell>
        <mxCell id="tzSfl47Rc7GnbTvQKxjG-72" value="&lt;b&gt;&lt;font style=&quot;font-size: 14px&quot;&gt;istore_1&lt;/font&gt;&lt;/b&gt;" style="text;html=1;align=center;verticalAlign=middle;resizable=0;points=[];autosize=1;" vertex="1" parent="1">
          <mxGeometry x="1005" y="700" width="70" height="20" as="geometry" />
        </mxCell>
        <mxCell id="tzSfl47Rc7GnbTvQKxjG-73" value="局部变量表" style="rounded=0;whiteSpace=wrap;html=1;fillColor=#b1ddf0;strokeColor=#10739e;" vertex="1" parent="1">
          <mxGeometry x="200" y="920" width="80" height="20" as="geometry" />
        </mxCell>
        <mxCell id="tzSfl47Rc7GnbTvQKxjG-74" value="操作数栈" style="rounded=0;whiteSpace=wrap;html=1;fillColor=#fad7ac;strokeColor=#b46504;" vertex="1" parent="1">
          <mxGeometry x="200" y="1000" width="80" height="20" as="geometry" />
        </mxCell>
        <mxCell id="tzSfl47Rc7GnbTvQKxjG-75" value="局部变量表" style="rounded=0;whiteSpace=wrap;html=1;fillColor=#b1ddf0;strokeColor=#10739e;" vertex="1" parent="1">
          <mxGeometry x="360" y="920" width="80" height="20" as="geometry" />
        </mxCell>
        <mxCell id="tzSfl47Rc7GnbTvQKxjG-76" value="操作数栈" style="rounded=0;whiteSpace=wrap;html=1;fillColor=#fad7ac;strokeColor=#b46504;" vertex="1" parent="1">
          <mxGeometry x="360" y="1000" width="80" height="20" as="geometry" />
        </mxCell>
        <mxCell id="tzSfl47Rc7GnbTvQKxjG-77" value="0" style="rounded=0;whiteSpace=wrap;html=1;fillColor=#fad7ac;strokeColor=#b46504;" vertex="1" parent="1">
          <mxGeometry x="360" y="1020" width="80" height="20" as="geometry" />
        </mxCell>
        <mxCell id="tzSfl47Rc7GnbTvQKxjG-78" value="局部变量表" style="rounded=0;whiteSpace=wrap;html=1;fillColor=#b1ddf0;strokeColor=#10739e;" vertex="1" parent="1">
          <mxGeometry x="520" y="920" width="80" height="20" as="geometry" />
        </mxCell>
        <mxCell id="tzSfl47Rc7GnbTvQKxjG-79" value="操作数栈" style="rounded=0;whiteSpace=wrap;html=1;fillColor=#fad7ac;strokeColor=#b46504;" vertex="1" parent="1">
          <mxGeometry x="520" y="1000" width="80" height="20" as="geometry" />
        </mxCell>
        <mxCell id="tzSfl47Rc7GnbTvQKxjG-80" value="0" style="rounded=0;whiteSpace=wrap;html=1;fillColor=none;dashed=1;" vertex="1" parent="1">
          <mxGeometry x="520" y="1020" width="80" height="20" as="geometry" />
        </mxCell>
        <mxCell id="tzSfl47Rc7GnbTvQKxjG-81" value="0" style="rounded=0;whiteSpace=wrap;html=1;fillColor=#b1ddf0;strokeColor=#10739e;" vertex="1" parent="1">
          <mxGeometry x="520" y="940" width="80" height="20" as="geometry" />
        </mxCell>
        <mxCell id="tzSfl47Rc7GnbTvQKxjG-82" value="" style="curved=1;endArrow=classic;html=1;exitX=0;exitY=0.5;exitDx=0;exitDy=0;entryX=0;entryY=0.5;entryDx=0;entryDy=0;fillColor=#fad7ac;strokeColor=#b46504;" edge="1" parent="1" source="tzSfl47Rc7GnbTvQKxjG-80" target="tzSfl47Rc7GnbTvQKxjG-81">
          <mxGeometry width="50" height="50" relative="1" as="geometry">
            <mxPoint x="570" y="1150" as="sourcePoint" />
            <mxPoint x="510" y="950" as="targetPoint" />
            <Array as="points">
              <mxPoint x="480" y="1010" />
              <mxPoint x="490" y="960" />
            </Array>
          </mxGeometry>
        </mxCell>
        <mxCell id="tzSfl47Rc7GnbTvQKxjG-83" value="&lt;b&gt;&lt;font style=&quot;font-size: 14px&quot;&gt;iconst_0&lt;/font&gt;&lt;/b&gt;" style="text;html=1;align=center;verticalAlign=middle;resizable=0;points=[];autosize=1;" vertex="1" parent="1">
          <mxGeometry x="365" y="880" width="70" height="20" as="geometry" />
        </mxCell>
        <mxCell id="tzSfl47Rc7GnbTvQKxjG-84" value="&lt;font style=&quot;font-size: 14px&quot;&gt;&lt;b&gt;istore_1&lt;/b&gt;&lt;/font&gt;" style="text;html=1;align=center;verticalAlign=middle;resizable=0;points=[];autosize=1;" vertex="1" parent="1">
          <mxGeometry x="525" y="880" width="70" height="20" as="geometry" />
        </mxCell>
        <mxCell id="tzSfl47Rc7GnbTvQKxjG-85" value="" style="endArrow=none;dashed=1;html=1;" edge="1" parent="1">
          <mxGeometry width="50" height="50" relative="1" as="geometry">
            <mxPoint x="80" y="870" as="sourcePoint" />
            <mxPoint x="1200" y="870" as="targetPoint" />
          </mxGeometry>
        </mxCell>
        <mxCell id="tzSfl47Rc7GnbTvQKxjG-86" value="局部变量表" style="rounded=0;whiteSpace=wrap;html=1;fillColor=#b1ddf0;strokeColor=#10739e;" vertex="1" parent="1">
          <mxGeometry x="680" y="920" width="80" height="20" as="geometry" />
        </mxCell>
        <mxCell id="tzSfl47Rc7GnbTvQKxjG-87" value="操作数栈" style="rounded=0;whiteSpace=wrap;html=1;fillColor=#fad7ac;strokeColor=#b46504;" vertex="1" parent="1">
          <mxGeometry x="680" y="1000" width="80" height="20" as="geometry" />
        </mxCell>
        <mxCell id="tzSfl47Rc7GnbTvQKxjG-89" value="1" style="rounded=0;whiteSpace=wrap;html=1;fillColor=#b1ddf0;strokeColor=#10739e;" vertex="1" parent="1">
          <mxGeometry x="680" y="940" width="80" height="20" as="geometry" />
        </mxCell>
        <mxCell id="tzSfl47Rc7GnbTvQKxjG-90" value="&lt;font style=&quot;font-size: 14px&quot;&gt;&lt;b&gt;iinc&lt;/b&gt;&lt;/font&gt;" style="text;html=1;align=center;verticalAlign=middle;resizable=0;points=[];autosize=1;" vertex="1" parent="1">
          <mxGeometry x="700" y="880" width="40" height="20" as="geometry" />
        </mxCell>
        <mxCell id="tzSfl47Rc7GnbTvQKxjG-91" value="局部变量表" style="rounded=0;whiteSpace=wrap;html=1;fillColor=#b1ddf0;strokeColor=#10739e;" vertex="1" parent="1">
          <mxGeometry x="840" y="920" width="80" height="20" as="geometry" />
        </mxCell>
        <mxCell id="tzSfl47Rc7GnbTvQKxjG-92" value="操作数栈" style="rounded=0;whiteSpace=wrap;html=1;fillColor=#fad7ac;strokeColor=#b46504;" vertex="1" parent="1">
          <mxGeometry x="840" y="1000" width="80" height="20" as="geometry" />
        </mxCell>
        <mxCell id="tzSfl47Rc7GnbTvQKxjG-93" value="1" style="rounded=0;whiteSpace=wrap;html=1;fillColor=#fad7ac;strokeColor=#b46504;" vertex="1" parent="1">
          <mxGeometry x="840" y="1020" width="80" height="20" as="geometry" />
        </mxCell>
        <mxCell id="tzSfl47Rc7GnbTvQKxjG-94" value="1" style="rounded=0;whiteSpace=wrap;html=1;fillColor=#b1ddf0;strokeColor=#10739e;" vertex="1" parent="1">
          <mxGeometry x="840" y="940" width="80" height="20" as="geometry" />
        </mxCell>
        <mxCell id="tzSfl47Rc7GnbTvQKxjG-95" value="" style="curved=1;endArrow=classic;html=1;exitX=0;exitY=0.25;exitDx=0;exitDy=0;fillColor=#fad7ac;strokeColor=#b46504;" edge="1" parent="1" source="tzSfl47Rc7GnbTvQKxjG-94">
          <mxGeometry width="50" height="50" relative="1" as="geometry">
            <mxPoint x="890" y="1150" as="sourcePoint" />
            <mxPoint x="840" y="1030" as="targetPoint" />
            <Array as="points">
              <mxPoint x="800" y="970" />
              <mxPoint x="800" y="1020" />
            </Array>
          </mxGeometry>
        </mxCell>
        <mxCell id="tzSfl47Rc7GnbTvQKxjG-96" value="&lt;font style=&quot;font-size: 14px&quot;&gt;&lt;b&gt;iload_1&lt;/b&gt;&lt;/font&gt;" style="text;html=1;align=center;verticalAlign=middle;resizable=0;points=[];autosize=1;" vertex="1" parent="1">
          <mxGeometry x="855" y="880" width="60" height="20" as="geometry" />
        </mxCell>
        <mxCell id="tzSfl47Rc7GnbTvQKxjG-97" value="局部变量表" style="rounded=0;whiteSpace=wrap;html=1;fillColor=#b1ddf0;strokeColor=#10739e;" vertex="1" parent="1">
          <mxGeometry x="1000" y="920" width="80" height="20" as="geometry" />
        </mxCell>
        <mxCell id="tzSfl47Rc7GnbTvQKxjG-98" value="操作数栈" style="rounded=0;whiteSpace=wrap;html=1;fillColor=#fad7ac;strokeColor=#b46504;" vertex="1" parent="1">
          <mxGeometry x="1000" y="1000" width="80" height="20" as="geometry" />
        </mxCell>
        <mxCell id="tzSfl47Rc7GnbTvQKxjG-99" value="1" style="rounded=0;whiteSpace=wrap;html=1;fillColor=none;dashed=1;" vertex="1" parent="1">
          <mxGeometry x="1000" y="1020" width="80" height="20" as="geometry" />
        </mxCell>
        <mxCell id="tzSfl47Rc7GnbTvQKxjG-100" value="1" style="rounded=0;whiteSpace=wrap;html=1;fillColor=#b1ddf0;strokeColor=#10739e;" vertex="1" parent="1">
          <mxGeometry x="1000" y="940" width="80" height="20" as="geometry" />
        </mxCell>
        <mxCell id="tzSfl47Rc7GnbTvQKxjG-101" value="" style="curved=1;endArrow=classic;html=1;exitX=0;exitY=0.5;exitDx=0;exitDy=0;entryX=0;entryY=0.5;entryDx=0;entryDy=0;fillColor=#fad7ac;strokeColor=#b46504;" edge="1" parent="1" source="tzSfl47Rc7GnbTvQKxjG-99" target="tzSfl47Rc7GnbTvQKxjG-100">
          <mxGeometry width="50" height="50" relative="1" as="geometry">
            <mxPoint x="1050" y="1150" as="sourcePoint" />
            <mxPoint x="990" y="950" as="targetPoint" />
            <Array as="points">
              <mxPoint x="960" y="1010" />
              <mxPoint x="970" y="960" />
            </Array>
          </mxGeometry>
        </mxCell>
        <mxCell id="tzSfl47Rc7GnbTvQKxjG-102" value="&lt;b&gt;&lt;font style=&quot;font-size: 14px&quot;&gt;istore_1&lt;/font&gt;&lt;/b&gt;" style="text;html=1;align=center;verticalAlign=middle;resizable=0;points=[];autosize=1;" vertex="1" parent="1">
          <mxGeometry x="1005" y="880" width="70" height="20" as="geometry" />
        </mxCell>
        <mxCell id="tzSfl47Rc7GnbTvQKxjG-103" value="&lt;b&gt;&lt;font style=&quot;font-size: 15px&quot;&gt;i = i ++&lt;/font&gt;&lt;/b&gt;" style="text;html=1;align=center;verticalAlign=middle;resizable=0;points=[];autosize=1;" vertex="1" parent="1">
          <mxGeometry x="105" y="780" width="60" height="20" as="geometry" />
        </mxCell>
        <mxCell id="tzSfl47Rc7GnbTvQKxjG-104" value="&lt;b&gt;&lt;font style=&quot;font-size: 15px&quot;&gt;i = ++ i&lt;/font&gt;&lt;/b&gt;" style="text;html=1;align=center;verticalAlign=middle;resizable=0;points=[];autosize=1;" vertex="1" parent="1">
          <mxGeometry x="105" y="940" width="60" height="20" as="geometry" />
        </mxCell>
        <mxCell id="tzSfl47Rc7GnbTvQKxjG-105" value="" style="endArrow=none;dashed=1;html=1;" edge="1" parent="1">
          <mxGeometry width="50" height="50" relative="1" as="geometry">
            <mxPoint x="80" y="680" as="sourcePoint" />
            <mxPoint x="1200" y="680" as="targetPoint" />
          </mxGeometry>
        </mxCell>
        <mxCell id="tzSfl47Rc7GnbTvQKxjG-108" value="局部变量表" style="rounded=0;whiteSpace=wrap;html=1;fillColor=#b1ddf0;strokeColor=#10739e;" vertex="1" parent="1">
          <mxGeometry x="200" y="520" width="80" height="20" as="geometry" />
        </mxCell>
        <mxCell id="tzSfl47Rc7GnbTvQKxjG-109" value="操作数栈" style="rounded=0;whiteSpace=wrap;html=1;fillColor=#fad7ac;strokeColor=#b46504;" vertex="1" parent="1">
          <mxGeometry x="200" y="600" width="80" height="20" as="geometry" />
        </mxCell>
        <mxCell id="tzSfl47Rc7GnbTvQKxjG-110" value="局部变量表" style="rounded=0;whiteSpace=wrap;html=1;fillColor=#b1ddf0;strokeColor=#10739e;" vertex="1" parent="1">
          <mxGeometry x="360" y="520" width="80" height="20" as="geometry" />
        </mxCell>
        <mxCell id="tzSfl47Rc7GnbTvQKxjG-111" value="操作数栈" style="rounded=0;whiteSpace=wrap;html=1;fillColor=#fad7ac;strokeColor=#b46504;" vertex="1" parent="1">
          <mxGeometry x="360" y="600" width="80" height="20" as="geometry" />
        </mxCell>
        <mxCell id="tzSfl47Rc7GnbTvQKxjG-112" value="0" style="rounded=0;whiteSpace=wrap;html=1;fillColor=#fad7ac;strokeColor=#b46504;" vertex="1" parent="1">
          <mxGeometry x="360" y="620" width="80" height="20" as="geometry" />
        </mxCell>
        <mxCell id="tzSfl47Rc7GnbTvQKxjG-113" value="局部变量表" style="rounded=0;whiteSpace=wrap;html=1;fillColor=#b1ddf0;strokeColor=#10739e;" vertex="1" parent="1">
          <mxGeometry x="520" y="520" width="80" height="20" as="geometry" />
        </mxCell>
        <mxCell id="tzSfl47Rc7GnbTvQKxjG-114" value="操作数栈" style="rounded=0;whiteSpace=wrap;html=1;fillColor=#fad7ac;strokeColor=#b46504;" vertex="1" parent="1">
          <mxGeometry x="520" y="600" width="80" height="20" as="geometry" />
        </mxCell>
        <mxCell id="tzSfl47Rc7GnbTvQKxjG-115" value="0" style="rounded=0;whiteSpace=wrap;html=1;fillColor=none;dashed=1;" vertex="1" parent="1">
          <mxGeometry x="520" y="620" width="80" height="20" as="geometry" />
        </mxCell>
        <mxCell id="tzSfl47Rc7GnbTvQKxjG-116" value="0" style="rounded=0;whiteSpace=wrap;html=1;fillColor=#b1ddf0;strokeColor=#10739e;" vertex="1" parent="1">
          <mxGeometry x="520" y="540" width="80" height="20" as="geometry" />
        </mxCell>
        <mxCell id="tzSfl47Rc7GnbTvQKxjG-117" value="" style="curved=1;endArrow=classic;html=1;exitX=0;exitY=0.5;exitDx=0;exitDy=0;entryX=0;entryY=0.5;entryDx=0;entryDy=0;fillColor=#fad7ac;strokeColor=#b46504;" edge="1" parent="1" source="tzSfl47Rc7GnbTvQKxjG-115" target="tzSfl47Rc7GnbTvQKxjG-116">
          <mxGeometry width="50" height="50" relative="1" as="geometry">
            <mxPoint x="570" y="750" as="sourcePoint" />
            <mxPoint x="510" y="550" as="targetPoint" />
            <Array as="points">
              <mxPoint x="480" y="610" />
              <mxPoint x="490" y="560" />
            </Array>
          </mxGeometry>
        </mxCell>
        <mxCell id="tzSfl47Rc7GnbTvQKxjG-118" value="&lt;b&gt;&lt;font style=&quot;font-size: 14px&quot;&gt;iconst_0&lt;/font&gt;&lt;/b&gt;" style="text;html=1;align=center;verticalAlign=middle;resizable=0;points=[];autosize=1;" vertex="1" parent="1">
          <mxGeometry x="365" y="480" width="70" height="20" as="geometry" />
        </mxCell>
        <mxCell id="tzSfl47Rc7GnbTvQKxjG-119" value="&lt;font style=&quot;font-size: 14px&quot;&gt;&lt;b&gt;istore_1&lt;/b&gt;&lt;/font&gt;" style="text;html=1;align=center;verticalAlign=middle;resizable=0;points=[];autosize=1;" vertex="1" parent="1">
          <mxGeometry x="525" y="480" width="70" height="20" as="geometry" />
        </mxCell>
        <mxCell id="tzSfl47Rc7GnbTvQKxjG-120" value="&lt;b&gt;&lt;font style=&quot;font-size: 15px&quot;&gt;i = i + 2&lt;/font&gt;&lt;/b&gt;" style="text;html=1;align=center;verticalAlign=middle;resizable=0;points=[];autosize=1;" vertex="1" parent="1">
          <mxGeometry x="100" y="560" width="70" height="20" as="geometry" />
        </mxCell>
        <mxCell id="tzSfl47Rc7GnbTvQKxjG-121" value="局部变量表" style="rounded=0;whiteSpace=wrap;html=1;fillColor=#b1ddf0;strokeColor=#10739e;" vertex="1" parent="1">
          <mxGeometry x="680" y="520" width="80" height="20" as="geometry" />
        </mxCell>
        <mxCell id="tzSfl47Rc7GnbTvQKxjG-122" value="操作数栈" style="rounded=0;whiteSpace=wrap;html=1;fillColor=#fad7ac;strokeColor=#b46504;" vertex="1" parent="1">
          <mxGeometry x="680" y="600" width="80" height="20" as="geometry" />
        </mxCell>
        <mxCell id="tzSfl47Rc7GnbTvQKxjG-123" value="0" style="rounded=0;whiteSpace=wrap;html=1;fillColor=#fad7ac;strokeColor=#b46504;" vertex="1" parent="1">
          <mxGeometry x="680" y="620" width="80" height="20" as="geometry" />
        </mxCell>
        <mxCell id="tzSfl47Rc7GnbTvQKxjG-124" value="0" style="rounded=0;whiteSpace=wrap;html=1;fillColor=#b1ddf0;strokeColor=#10739e;" vertex="1" parent="1">
          <mxGeometry x="680" y="540" width="80" height="20" as="geometry" />
        </mxCell>
        <mxCell id="tzSfl47Rc7GnbTvQKxjG-125" value="" style="curved=1;endArrow=classic;html=1;exitX=0;exitY=0.25;exitDx=0;exitDy=0;fillColor=#fad7ac;strokeColor=#b46504;" edge="1" parent="1" source="tzSfl47Rc7GnbTvQKxjG-124">
          <mxGeometry width="50" height="50" relative="1" as="geometry">
            <mxPoint x="730" y="750" as="sourcePoint" />
            <mxPoint x="680" y="630" as="targetPoint" />
            <Array as="points">
              <mxPoint x="640" y="570" />
              <mxPoint x="640" y="620" />
            </Array>
          </mxGeometry>
        </mxCell>
        <mxCell id="tzSfl47Rc7GnbTvQKxjG-126" value="&lt;b&gt;&lt;font style=&quot;font-size: 14px&quot;&gt;iload_1&lt;/font&gt;&lt;/b&gt;" style="text;html=1;align=center;verticalAlign=middle;resizable=0;points=[];autosize=1;" vertex="1" parent="1">
          <mxGeometry x="695" y="480" width="60" height="20" as="geometry" />
        </mxCell>
        <mxCell id="tzSfl47Rc7GnbTvQKxjG-127" value="局部变量表" style="rounded=0;whiteSpace=wrap;html=1;fillColor=#b1ddf0;strokeColor=#10739e;" vertex="1" parent="1">
          <mxGeometry x="840" y="520" width="80" height="20" as="geometry" />
        </mxCell>
        <mxCell id="tzSfl47Rc7GnbTvQKxjG-128" value="操作数栈" style="rounded=0;whiteSpace=wrap;html=1;fillColor=#fad7ac;strokeColor=#b46504;" vertex="1" parent="1">
          <mxGeometry x="840" y="600" width="80" height="20" as="geometry" />
        </mxCell>
        <mxCell id="tzSfl47Rc7GnbTvQKxjG-129" value="0" style="rounded=0;whiteSpace=wrap;html=1;fillColor=#fad7ac;strokeColor=#b46504;" vertex="1" parent="1">
          <mxGeometry x="840" y="620" width="80" height="20" as="geometry" />
        </mxCell>
        <mxCell id="tzSfl47Rc7GnbTvQKxjG-130" value="0" style="rounded=0;whiteSpace=wrap;html=1;fillColor=#b1ddf0;strokeColor=#10739e;" vertex="1" parent="1">
          <mxGeometry x="840" y="540" width="80" height="20" as="geometry" />
        </mxCell>
        <mxCell id="tzSfl47Rc7GnbTvQKxjG-132" value="&lt;b&gt;&lt;font style=&quot;font-size: 14px&quot;&gt;iconst_2&lt;/font&gt;&lt;/b&gt;" style="text;html=1;align=center;verticalAlign=middle;resizable=0;points=[];autosize=1;" vertex="1" parent="1">
          <mxGeometry x="850" y="480" width="70" height="20" as="geometry" />
        </mxCell>
        <mxCell id="tzSfl47Rc7GnbTvQKxjG-133" value="2" style="rounded=0;whiteSpace=wrap;html=1;fillColor=#fad7ac;strokeColor=#b46504;" vertex="1" parent="1">
          <mxGeometry x="840" y="640" width="80" height="20" as="geometry" />
        </mxCell>
        <mxCell id="tzSfl47Rc7GnbTvQKxjG-134" value="局部变量表" style="rounded=0;whiteSpace=wrap;html=1;fillColor=#b1ddf0;strokeColor=#10739e;" vertex="1" parent="1">
          <mxGeometry x="960" y="520" width="80" height="20" as="geometry" />
        </mxCell>
        <mxCell id="tzSfl47Rc7GnbTvQKxjG-135" value="操作数栈" style="rounded=0;whiteSpace=wrap;html=1;fillColor=#fad7ac;strokeColor=#b46504;" vertex="1" parent="1">
          <mxGeometry x="960" y="600" width="80" height="20" as="geometry" />
        </mxCell>
        <mxCell id="tzSfl47Rc7GnbTvQKxjG-136" value="0" style="rounded=0;whiteSpace=wrap;html=1;fillColor=none;dashed=1;" vertex="1" parent="1">
          <mxGeometry x="960" y="620" width="80" height="20" as="geometry" />
        </mxCell>
        <mxCell id="tzSfl47Rc7GnbTvQKxjG-137" value="0" style="rounded=0;whiteSpace=wrap;html=1;fillColor=#b1ddf0;strokeColor=#10739e;" vertex="1" parent="1">
          <mxGeometry x="960" y="540" width="80" height="20" as="geometry" />
        </mxCell>
        <mxCell id="tzSfl47Rc7GnbTvQKxjG-138" value="&lt;b&gt;&lt;font style=&quot;font-size: 14px&quot;&gt;iadd&lt;/font&gt;&lt;/b&gt;" style="text;html=1;align=center;verticalAlign=middle;resizable=0;points=[];autosize=1;" vertex="1" parent="1">
          <mxGeometry x="1025" y="480" width="40" height="20" as="geometry" />
        </mxCell>
        <mxCell id="tzSfl47Rc7GnbTvQKxjG-139" value="2" style="rounded=0;whiteSpace=wrap;html=1;fillColor=none;dashed=1;" vertex="1" parent="1">
          <mxGeometry x="960" y="640" width="80" height="20" as="geometry" />
        </mxCell>
        <mxCell id="tzSfl47Rc7GnbTvQKxjG-140" value="局部变量表" style="rounded=0;whiteSpace=wrap;html=1;fillColor=#b1ddf0;strokeColor=#10739e;" vertex="1" parent="1">
          <mxGeometry x="1060" y="520" width="80" height="20" as="geometry" />
        </mxCell>
        <mxCell id="tzSfl47Rc7GnbTvQKxjG-141" value="操作数栈" style="rounded=0;whiteSpace=wrap;html=1;fillColor=#fad7ac;strokeColor=#b46504;" vertex="1" parent="1">
          <mxGeometry x="1060" y="600" width="80" height="20" as="geometry" />
        </mxCell>
        <mxCell id="tzSfl47Rc7GnbTvQKxjG-142" value="2" style="rounded=0;whiteSpace=wrap;html=1;fillColor=#fad7ac;strokeColor=#b46504;" vertex="1" parent="1">
          <mxGeometry x="1060" y="620" width="80" height="20" as="geometry" />
        </mxCell>
        <mxCell id="tzSfl47Rc7GnbTvQKxjG-143" value="0" style="rounded=0;whiteSpace=wrap;html=1;fillColor=#b1ddf0;strokeColor=#10739e;" vertex="1" parent="1">
          <mxGeometry x="1060" y="540" width="80" height="20" as="geometry" />
        </mxCell>
        <mxCell id="tzSfl47Rc7GnbTvQKxjG-145" value="" style="endArrow=classic;html=1;entryX=0;entryY=0.5;entryDx=0;entryDy=0;exitX=1;exitY=0.5;exitDx=0;exitDy=0;" edge="1" parent="1" source="tzSfl47Rc7GnbTvQKxjG-135" target="tzSfl47Rc7GnbTvQKxjG-141">
          <mxGeometry width="50" height="50" relative="1" as="geometry">
            <mxPoint x="980" y="620" as="sourcePoint" />
            <mxPoint x="1060" y="640" as="targetPoint" />
          </mxGeometry>
        </mxCell>
        <mxCell id="tzSfl47Rc7GnbTvQKxjG-146" value="" style="rounded=1;whiteSpace=wrap;html=1;dashed=1;fillColor=none;" vertex="1" parent="1">
          <mxGeometry x="940" y="510" width="220" height="160" as="geometry" />
        </mxCell>
        <mxCell id="tzSfl47Rc7GnbTvQKxjG-147" value="局部变量表" style="rounded=0;whiteSpace=wrap;html=1;fillColor=#b1ddf0;strokeColor=#10739e;" vertex="1" parent="1">
          <mxGeometry x="1200" y="530" width="80" height="20" as="geometry" />
        </mxCell>
        <mxCell id="tzSfl47Rc7GnbTvQKxjG-148" value="操作数栈" style="rounded=0;whiteSpace=wrap;html=1;fillColor=#fad7ac;strokeColor=#b46504;" vertex="1" parent="1">
          <mxGeometry x="1200" y="610" width="80" height="20" as="geometry" />
        </mxCell>
        <mxCell id="tzSfl47Rc7GnbTvQKxjG-149" value="2" style="rounded=0;whiteSpace=wrap;html=1;fillColor=none;dashed=1;" vertex="1" parent="1">
          <mxGeometry x="1200" y="630" width="80" height="20" as="geometry" />
        </mxCell>
        <mxCell id="tzSfl47Rc7GnbTvQKxjG-150" value="2" style="rounded=0;whiteSpace=wrap;html=1;fillColor=#b1ddf0;strokeColor=#10739e;" vertex="1" parent="1">
          <mxGeometry x="1200" y="550" width="80" height="20" as="geometry" />
        </mxCell>
        <mxCell id="tzSfl47Rc7GnbTvQKxjG-151" value="" style="curved=1;endArrow=classic;html=1;exitX=0;exitY=0.5;exitDx=0;exitDy=0;entryX=0;entryY=0.5;entryDx=0;entryDy=0;fillColor=#fad7ac;strokeColor=#b46504;" edge="1" parent="1" source="tzSfl47Rc7GnbTvQKxjG-149" target="tzSfl47Rc7GnbTvQKxjG-150">
          <mxGeometry width="50" height="50" relative="1" as="geometry">
            <mxPoint x="1250" y="760" as="sourcePoint" />
            <mxPoint x="1190" y="560" as="targetPoint" />
            <Array as="points">
              <mxPoint x="1160" y="620" />
              <mxPoint x="1170" y="570" />
            </Array>
          </mxGeometry>
        </mxCell>
        <mxCell id="tzSfl47Rc7GnbTvQKxjG-152" value="&lt;b&gt;&lt;font style=&quot;font-size: 14px&quot;&gt;istore_1&lt;/font&gt;&lt;/b&gt;" style="text;html=1;align=center;verticalAlign=middle;resizable=0;points=[];autosize=1;" vertex="1" parent="1">
          <mxGeometry x="1205" y="490" width="70" height="20" as="geometry" />
        </mxCell>
        <mxCell id="tzSfl47Rc7GnbTvQKxjG-153" value="&lt;div style=&quot;font-size: 15px&quot;&gt;&lt;b&gt;&lt;font style=&quot;font-size: 15px&quot;&gt;&amp;nbsp; &amp;nbsp; &amp;nbsp; &amp;nbsp;0: iconst_0&lt;/font&gt;&lt;/b&gt;&lt;/div&gt;&lt;div style=&quot;font-size: 15px&quot;&gt;&lt;b&gt;&lt;font style=&quot;font-size: 15px&quot;&gt;&amp;nbsp; &amp;nbsp; &amp;nbsp; 1: istore_1&lt;/font&gt;&lt;/b&gt;&lt;/div&gt;&lt;div style=&quot;font-size: 15px&quot;&gt;&lt;b&gt;&lt;font style=&quot;font-size: 15px&quot;&gt;&amp;nbsp; &amp;nbsp; &amp;nbsp; &amp;nbsp; &amp;nbsp; &amp;nbsp; &amp;nbsp; &amp;nbsp;2: iinc&amp;nbsp; &amp;nbsp; &amp;nbsp; &amp;nbsp; &amp;nbsp; 1, 1&lt;/font&gt;&lt;/b&gt;&lt;/div&gt;&lt;div style=&quot;font-size: 15px&quot;&gt;&lt;b&gt;&lt;font style=&quot;font-size: 15px&quot;&gt;&amp;nbsp; &amp;nbsp; &amp;nbsp; 5: iload_1&lt;/font&gt;&lt;/b&gt;&lt;/div&gt;&lt;div style=&quot;font-size: 15px&quot;&gt;&lt;b&gt;&lt;font style=&quot;font-size: 15px&quot;&gt;&amp;nbsp; &amp;nbsp; &amp;nbsp; &amp;nbsp;6: istore_1&lt;/font&gt;&lt;/b&gt;&lt;/div&gt;&lt;div style=&quot;font-size: 15px&quot;&gt;&lt;b&gt;&lt;font style=&quot;font-size: 15px&quot;&gt;&amp;nbsp; &amp;nbsp; 7: return&lt;/font&gt;&lt;/b&gt;&lt;/div&gt;&lt;div style=&quot;font-size: 15px&quot;&gt;&lt;br&gt;&lt;/div&gt;" style="text;html=1;align=center;verticalAlign=middle;resizable=0;points=[];autosize=1;" vertex="1" parent="1">
          <mxGeometry x="1050" y="930" width="190" height="100" as="geometry" />
        </mxCell>
        <mxCell id="tzSfl47Rc7GnbTvQKxjG-154" value="&lt;div style=&quot;font-size: 15px&quot;&gt;&lt;div&gt;&lt;b&gt;&amp;nbsp; &amp;nbsp; &amp;nbsp; &amp;nbsp;0: iconst_0&lt;/b&gt;&lt;/div&gt;&lt;div&gt;&lt;b&gt;&amp;nbsp; &amp;nbsp; &amp;nbsp; 1: istore_1&lt;/b&gt;&lt;/div&gt;&lt;div&gt;&lt;b&gt;&amp;nbsp; &amp;nbsp; &amp;nbsp;2: iload_1&lt;/b&gt;&lt;/div&gt;&lt;div&gt;&lt;b&gt;&amp;nbsp; &amp;nbsp; &amp;nbsp; &amp;nbsp; &amp;nbsp; &amp;nbsp; &amp;nbsp; &amp;nbsp;3: iinc&amp;nbsp; &amp;nbsp; &amp;nbsp; &amp;nbsp; &amp;nbsp; 1, 1&lt;/b&gt;&lt;/div&gt;&lt;div&gt;&lt;b&gt;&amp;nbsp; &amp;nbsp; &amp;nbsp; 6: istore_1&lt;/b&gt;&lt;/div&gt;&lt;div&gt;&lt;b&gt;&amp;nbsp; &amp;nbsp;7: return&lt;/b&gt;&lt;/div&gt;&lt;/div&gt;" style="text;html=1;align=center;verticalAlign=middle;resizable=0;points=[];autosize=1;" vertex="1" parent="1">
          <mxGeometry x="1050" y="735" width="190" height="90" as="geometry" />
        </mxCell>
        <mxCell id="tzSfl47Rc7GnbTvQKxjG-166" value="局部变量表" style="rounded=0;whiteSpace=wrap;html=1;fillColor=#b1ddf0;strokeColor=#10739e;" vertex="1" parent="1">
          <mxGeometry x="160" y="1160" width="80" height="20" as="geometry" />
        </mxCell>
        <mxCell id="tzSfl47Rc7GnbTvQKxjG-167" value="操作数栈" style="rounded=0;whiteSpace=wrap;html=1;fillColor=#fad7ac;strokeColor=#b46504;" vertex="1" parent="1">
          <mxGeometry x="160" y="1240" width="80" height="20" as="geometry" />
        </mxCell>
        <mxCell id="tzSfl47Rc7GnbTvQKxjG-168" value="0" style="rounded=0;whiteSpace=wrap;html=1;fillColor=#fad7ac;strokeColor=#b46504;" vertex="1" parent="1">
          <mxGeometry x="160" y="1260" width="80" height="20" as="geometry" />
        </mxCell>
        <mxCell id="tzSfl47Rc7GnbTvQKxjG-169" value="局部变量表" style="rounded=0;whiteSpace=wrap;html=1;fillColor=#b1ddf0;strokeColor=#10739e;" vertex="1" parent="1">
          <mxGeometry x="280" y="1160" width="80" height="20" as="geometry" />
        </mxCell>
        <mxCell id="tzSfl47Rc7GnbTvQKxjG-170" value="操作数栈" style="rounded=0;whiteSpace=wrap;html=1;fillColor=#fad7ac;strokeColor=#b46504;" vertex="1" parent="1">
          <mxGeometry x="280" y="1240" width="80" height="20" as="geometry" />
        </mxCell>
        <mxCell id="tzSfl47Rc7GnbTvQKxjG-171" value="0" style="rounded=0;whiteSpace=wrap;html=1;fillColor=none;dashed=1;" vertex="1" parent="1">
          <mxGeometry x="280" y="1260" width="80" height="20" as="geometry" />
        </mxCell>
        <mxCell id="tzSfl47Rc7GnbTvQKxjG-172" value="0" style="rounded=0;whiteSpace=wrap;html=1;fillColor=#b1ddf0;strokeColor=#10739e;" vertex="1" parent="1">
          <mxGeometry x="280" y="1180" width="80" height="20" as="geometry" />
        </mxCell>
        <mxCell id="tzSfl47Rc7GnbTvQKxjG-173" value="" style="curved=1;endArrow=classic;html=1;exitX=0;exitY=0.5;exitDx=0;exitDy=0;entryX=0;entryY=0.5;entryDx=0;entryDy=0;fillColor=#fad7ac;strokeColor=#b46504;" edge="1" parent="1" source="tzSfl47Rc7GnbTvQKxjG-171" target="tzSfl47Rc7GnbTvQKxjG-172">
          <mxGeometry width="50" height="50" relative="1" as="geometry">
            <mxPoint x="330" y="1390" as="sourcePoint" />
            <mxPoint x="270" y="1190" as="targetPoint" />
            <Array as="points">
              <mxPoint x="240" y="1250" />
              <mxPoint x="250" y="1200" />
            </Array>
          </mxGeometry>
        </mxCell>
        <mxCell id="tzSfl47Rc7GnbTvQKxjG-262" style="edgeStyle=orthogonalEdgeStyle;rounded=0;orthogonalLoop=1;jettySize=auto;html=1;entryX=-0.005;entryY=0.517;entryDx=0;entryDy=0;entryPerimeter=0;" edge="1" parent="1" source="tzSfl47Rc7GnbTvQKxjG-174" target="tzSfl47Rc7GnbTvQKxjG-175">
          <mxGeometry relative="1" as="geometry" />
        </mxCell>
        <mxCell id="tzSfl47Rc7GnbTvQKxjG-174" value="&lt;b&gt;&lt;font style=&quot;font-size: 14px&quot;&gt;iconst_0&lt;/font&gt;&lt;/b&gt;" style="text;html=1;align=center;verticalAlign=middle;resizable=0;points=[];autosize=1;" vertex="1" parent="1">
          <mxGeometry x="165" y="1320" width="70" height="20" as="geometry" />
        </mxCell>
        <mxCell id="tzSfl47Rc7GnbTvQKxjG-263" style="edgeStyle=orthogonalEdgeStyle;rounded=0;orthogonalLoop=1;jettySize=auto;html=1;" edge="1" parent="1" source="tzSfl47Rc7GnbTvQKxjG-175" target="tzSfl47Rc7GnbTvQKxjG-184">
          <mxGeometry relative="1" as="geometry" />
        </mxCell>
        <mxCell id="tzSfl47Rc7GnbTvQKxjG-175" value="&lt;font style=&quot;font-size: 14px&quot;&gt;&lt;b&gt;istore_1&lt;/b&gt;&lt;/font&gt;" style="text;html=1;align=center;verticalAlign=middle;resizable=0;points=[];autosize=1;" vertex="1" parent="1">
          <mxGeometry x="290" y="1320" width="70" height="20" as="geometry" />
        </mxCell>
        <mxCell id="tzSfl47Rc7GnbTvQKxjG-176" value="局部变量表" style="rounded=0;whiteSpace=wrap;html=1;fillColor=#b1ddf0;strokeColor=#10739e;" vertex="1" parent="1">
          <mxGeometry x="400" y="1160" width="80" height="20" as="geometry" />
        </mxCell>
        <mxCell id="tzSfl47Rc7GnbTvQKxjG-177" value="操作数栈" style="rounded=0;whiteSpace=wrap;html=1;fillColor=#fad7ac;strokeColor=#b46504;" vertex="1" parent="1">
          <mxGeometry x="400" y="1240" width="80" height="20" as="geometry" />
        </mxCell>
        <mxCell id="tzSfl47Rc7GnbTvQKxjG-178" value="0" style="rounded=0;whiteSpace=wrap;html=1;fillColor=#fad7ac;strokeColor=#b46504;" vertex="1" parent="1">
          <mxGeometry x="400" y="1260" width="80" height="20" as="geometry" />
        </mxCell>
        <mxCell id="tzSfl47Rc7GnbTvQKxjG-179" value="局部变量表" style="rounded=0;whiteSpace=wrap;html=1;fillColor=#b1ddf0;strokeColor=#10739e;" vertex="1" parent="1">
          <mxGeometry x="520" y="1160" width="80" height="20" as="geometry" />
        </mxCell>
        <mxCell id="tzSfl47Rc7GnbTvQKxjG-180" value="操作数栈" style="rounded=0;whiteSpace=wrap;html=1;fillColor=#fad7ac;strokeColor=#b46504;" vertex="1" parent="1">
          <mxGeometry x="520" y="1240" width="80" height="20" as="geometry" />
        </mxCell>
        <mxCell id="tzSfl47Rc7GnbTvQKxjG-181" value="0" style="rounded=0;whiteSpace=wrap;html=1;fillColor=none;dashed=1;" vertex="1" parent="1">
          <mxGeometry x="520" y="1260" width="80" height="20" as="geometry" />
        </mxCell>
        <mxCell id="tzSfl47Rc7GnbTvQKxjG-182" value="0" style="rounded=0;whiteSpace=wrap;html=1;fillColor=#b1ddf0;strokeColor=#10739e;" vertex="1" parent="1">
          <mxGeometry x="520" y="1180" width="80" height="20" as="geometry" />
        </mxCell>
        <mxCell id="tzSfl47Rc7GnbTvQKxjG-183" value="" style="curved=1;endArrow=classic;html=1;exitX=0;exitY=0.5;exitDx=0;exitDy=0;entryX=0;entryY=0.5;entryDx=0;entryDy=0;fillColor=#fad7ac;strokeColor=#b46504;" edge="1" parent="1" source="tzSfl47Rc7GnbTvQKxjG-181" target="tzSfl47Rc7GnbTvQKxjG-186">
          <mxGeometry width="50" height="50" relative="1" as="geometry">
            <mxPoint x="570" y="1390" as="sourcePoint" />
            <mxPoint x="510" y="1190" as="targetPoint" />
            <Array as="points">
              <mxPoint x="500" y="1260" />
              <mxPoint x="500" y="1220" />
            </Array>
          </mxGeometry>
        </mxCell>
        <mxCell id="tzSfl47Rc7GnbTvQKxjG-264" style="edgeStyle=orthogonalEdgeStyle;rounded=0;orthogonalLoop=1;jettySize=auto;html=1;" edge="1" parent="1" source="tzSfl47Rc7GnbTvQKxjG-184" target="tzSfl47Rc7GnbTvQKxjG-185">
          <mxGeometry relative="1" as="geometry" />
        </mxCell>
        <mxCell id="tzSfl47Rc7GnbTvQKxjG-184" value="&lt;b&gt;&lt;font style=&quot;font-size: 14px&quot;&gt;iconst_0&lt;/font&gt;&lt;/b&gt;" style="text;html=1;align=center;verticalAlign=middle;resizable=0;points=[];autosize=1;" vertex="1" parent="1">
          <mxGeometry x="410" y="1320" width="70" height="20" as="geometry" />
        </mxCell>
        <mxCell id="tzSfl47Rc7GnbTvQKxjG-265" style="edgeStyle=orthogonalEdgeStyle;rounded=0;orthogonalLoop=1;jettySize=auto;html=1;entryX=-0.006;entryY=0.392;entryDx=0;entryDy=0;entryPerimeter=0;" edge="1" parent="1" source="tzSfl47Rc7GnbTvQKxjG-185" target="tzSfl47Rc7GnbTvQKxjG-192">
          <mxGeometry relative="1" as="geometry" />
        </mxCell>
        <mxCell id="tzSfl47Rc7GnbTvQKxjG-185" value="&lt;font style=&quot;font-size: 14px&quot;&gt;&lt;b&gt;istore_2&lt;/b&gt;&lt;/font&gt;" style="text;html=1;align=center;verticalAlign=middle;resizable=0;points=[];autosize=1;" vertex="1" parent="1">
          <mxGeometry x="525" y="1320" width="70" height="20" as="geometry" />
        </mxCell>
        <mxCell id="tzSfl47Rc7GnbTvQKxjG-186" value="0" style="rounded=0;whiteSpace=wrap;html=1;fillColor=#b1ddf0;strokeColor=#10739e;" vertex="1" parent="1">
          <mxGeometry x="520" y="1200" width="80" height="20" as="geometry" />
        </mxCell>
        <mxCell id="tzSfl47Rc7GnbTvQKxjG-188" value="操作数栈" style="rounded=0;whiteSpace=wrap;html=1;fillColor=#fad7ac;strokeColor=#b46504;" vertex="1" parent="1">
          <mxGeometry x="660" y="1240" width="80" height="20" as="geometry" />
        </mxCell>
        <mxCell id="tzSfl47Rc7GnbTvQKxjG-189" value="0" style="rounded=0;whiteSpace=wrap;html=1;fillColor=#fad7ac;strokeColor=#b46504;" vertex="1" parent="1">
          <mxGeometry x="660" y="1260" width="80" height="20" as="geometry" />
        </mxCell>
        <mxCell id="tzSfl47Rc7GnbTvQKxjG-191" value="" style="curved=1;endArrow=classic;html=1;exitX=0;exitY=0.5;exitDx=0;exitDy=0;fillColor=#fad7ac;strokeColor=#b46504;entryX=0;entryY=0.5;entryDx=0;entryDy=0;" edge="1" parent="1" source="tzSfl47Rc7GnbTvQKxjG-195" target="tzSfl47Rc7GnbTvQKxjG-189">
          <mxGeometry width="50" height="50" relative="1" as="geometry">
            <mxPoint x="1020" y="985" as="sourcePoint" />
            <mxPoint x="1020" y="1070" as="targetPoint" />
            <Array as="points">
              <mxPoint x="640" y="1220" />
              <mxPoint x="640" y="1260" />
            </Array>
          </mxGeometry>
        </mxCell>
        <mxCell id="tzSfl47Rc7GnbTvQKxjG-266" style="edgeStyle=orthogonalEdgeStyle;rounded=0;orthogonalLoop=1;jettySize=auto;html=1;" edge="1" parent="1" source="tzSfl47Rc7GnbTvQKxjG-192" target="tzSfl47Rc7GnbTvQKxjG-205">
          <mxGeometry relative="1" as="geometry" />
        </mxCell>
        <mxCell id="tzSfl47Rc7GnbTvQKxjG-192" value="&lt;font style=&quot;font-size: 14px&quot;&gt;&lt;b&gt;iload_2&lt;/b&gt;&lt;/font&gt;" style="text;html=1;align=center;verticalAlign=middle;resizable=0;points=[];autosize=1;" vertex="1" parent="1">
          <mxGeometry x="675" y="1322.5" width="60" height="20" as="geometry" />
        </mxCell>
        <mxCell id="tzSfl47Rc7GnbTvQKxjG-193" value="局部变量表" style="rounded=0;whiteSpace=wrap;html=1;fillColor=#b1ddf0;strokeColor=#10739e;" vertex="1" parent="1">
          <mxGeometry x="660" y="1160" width="80" height="20" as="geometry" />
        </mxCell>
        <mxCell id="tzSfl47Rc7GnbTvQKxjG-194" value="0" style="rounded=0;whiteSpace=wrap;html=1;fillColor=#b1ddf0;strokeColor=#10739e;" vertex="1" parent="1">
          <mxGeometry x="660" y="1180" width="80" height="20" as="geometry" />
        </mxCell>
        <mxCell id="tzSfl47Rc7GnbTvQKxjG-195" value="0" style="rounded=0;whiteSpace=wrap;html=1;fillColor=#b1ddf0;strokeColor=#10739e;" vertex="1" parent="1">
          <mxGeometry x="660" y="1200" width="80" height="20" as="geometry" />
        </mxCell>
        <mxCell id="tzSfl47Rc7GnbTvQKxjG-196" value="i" style="text;html=1;align=center;verticalAlign=middle;resizable=0;points=[];autosize=1;fillColor=#b0e3e6;strokeColor=#0e8088;" vertex="1" parent="1">
          <mxGeometry x="740" y="1180" width="20" height="20" as="geometry" />
        </mxCell>
        <mxCell id="tzSfl47Rc7GnbTvQKxjG-197" value="j" style="text;html=1;align=center;verticalAlign=middle;resizable=0;points=[];autosize=1;fillColor=#b0e3e6;strokeColor=#0e8088;" vertex="1" parent="1">
          <mxGeometry x="740" y="1200" width="20" height="20" as="geometry" />
        </mxCell>
        <mxCell id="tzSfl47Rc7GnbTvQKxjG-199" value="i" style="text;html=1;align=center;verticalAlign=middle;resizable=0;points=[];autosize=1;fillColor=#b0e3e6;strokeColor=#0e8088;" vertex="1" parent="1">
          <mxGeometry x="600" y="1180" width="20" height="20" as="geometry" />
        </mxCell>
        <mxCell id="tzSfl47Rc7GnbTvQKxjG-200" value="j" style="text;html=1;align=center;verticalAlign=middle;resizable=0;points=[];autosize=1;fillColor=#b0e3e6;strokeColor=#0e8088;" vertex="1" parent="1">
          <mxGeometry x="600" y="1200" width="20" height="20" as="geometry" />
        </mxCell>
        <mxCell id="tzSfl47Rc7GnbTvQKxjG-201" value="0" style="rounded=0;whiteSpace=wrap;html=1;fillColor=#b1ddf0;strokeColor=#10739e;" vertex="1" parent="1">
          <mxGeometry x="400" y="1180" width="80" height="20" as="geometry" />
        </mxCell>
        <mxCell id="tzSfl47Rc7GnbTvQKxjG-202" value="操作数栈" style="rounded=0;whiteSpace=wrap;html=1;fillColor=#fad7ac;strokeColor=#b46504;" vertex="1" parent="1">
          <mxGeometry x="800" y="1240" width="80" height="20" as="geometry" />
        </mxCell>
        <mxCell id="tzSfl47Rc7GnbTvQKxjG-203" value="0" style="rounded=0;whiteSpace=wrap;html=1;fillColor=#fad7ac;strokeColor=#b46504;" vertex="1" parent="1">
          <mxGeometry x="800" y="1260" width="80" height="20" as="geometry" />
        </mxCell>
        <mxCell id="tzSfl47Rc7GnbTvQKxjG-267" style="edgeStyle=orthogonalEdgeStyle;rounded=0;orthogonalLoop=1;jettySize=auto;html=1;entryX=0;entryY=0.5;entryDx=0;entryDy=0;" edge="1" parent="1" source="tzSfl47Rc7GnbTvQKxjG-205" target="tzSfl47Rc7GnbTvQKxjG-221">
          <mxGeometry relative="1" as="geometry" />
        </mxCell>
        <mxCell id="tzSfl47Rc7GnbTvQKxjG-205" value="&lt;span style=&quot;font-size: 14px&quot;&gt;&lt;b&gt;bipush&amp;nbsp; &amp;nbsp;100&lt;/b&gt;&lt;/span&gt;" style="text;html=1;align=center;verticalAlign=middle;resizable=0;points=[];autosize=1;" vertex="1" parent="1">
          <mxGeometry x="800" y="1322.5" width="100" height="20" as="geometry" />
        </mxCell>
        <mxCell id="tzSfl47Rc7GnbTvQKxjG-206" value="局部变量表" style="rounded=0;whiteSpace=wrap;html=1;fillColor=#b1ddf0;strokeColor=#10739e;" vertex="1" parent="1">
          <mxGeometry x="800" y="1160" width="80" height="20" as="geometry" />
        </mxCell>
        <mxCell id="tzSfl47Rc7GnbTvQKxjG-207" value="0" style="rounded=0;whiteSpace=wrap;html=1;fillColor=#b1ddf0;strokeColor=#10739e;" vertex="1" parent="1">
          <mxGeometry x="800" y="1180" width="80" height="20" as="geometry" />
        </mxCell>
        <mxCell id="tzSfl47Rc7GnbTvQKxjG-208" value="0" style="rounded=0;whiteSpace=wrap;html=1;fillColor=#b1ddf0;strokeColor=#10739e;" vertex="1" parent="1">
          <mxGeometry x="800" y="1200" width="80" height="20" as="geometry" />
        </mxCell>
        <mxCell id="tzSfl47Rc7GnbTvQKxjG-209" value="i" style="text;html=1;align=center;verticalAlign=middle;resizable=0;points=[];autosize=1;fillColor=#b0e3e6;strokeColor=#0e8088;" vertex="1" parent="1">
          <mxGeometry x="880" y="1180" width="20" height="20" as="geometry" />
        </mxCell>
        <mxCell id="tzSfl47Rc7GnbTvQKxjG-210" value="j" style="text;html=1;align=center;verticalAlign=middle;resizable=0;points=[];autosize=1;fillColor=#b0e3e6;strokeColor=#0e8088;" vertex="1" parent="1">
          <mxGeometry x="880" y="1200" width="20" height="20" as="geometry" />
        </mxCell>
        <mxCell id="tzSfl47Rc7GnbTvQKxjG-211" value="100" style="rounded=0;whiteSpace=wrap;html=1;fillColor=#fad7ac;strokeColor=#b46504;" vertex="1" parent="1">
          <mxGeometry x="800" y="1280" width="80" height="20" as="geometry" />
        </mxCell>
        <mxCell id="tzSfl47Rc7GnbTvQKxjG-212" value="操作数栈" style="rounded=0;whiteSpace=wrap;html=1;fillColor=#fad7ac;strokeColor=#b46504;" vertex="1" parent="1">
          <mxGeometry x="800" y="1519.5" width="80" height="20" as="geometry" />
        </mxCell>
        <mxCell id="tzSfl47Rc7GnbTvQKxjG-213" value="0" style="rounded=0;whiteSpace=wrap;html=1;fillColor=#fad7ac;strokeColor=#b46504;" vertex="1" parent="1">
          <mxGeometry x="800" y="1539.5" width="80" height="20" as="geometry" />
        </mxCell>
        <mxCell id="tzSfl47Rc7GnbTvQKxjG-214" value="局部变量表" style="rounded=0;whiteSpace=wrap;html=1;fillColor=#b1ddf0;strokeColor=#10739e;" vertex="1" parent="1">
          <mxGeometry x="800" y="1439.5" width="80" height="20" as="geometry" />
        </mxCell>
        <mxCell id="tzSfl47Rc7GnbTvQKxjG-215" value="0" style="rounded=0;whiteSpace=wrap;html=1;fillColor=#b1ddf0;strokeColor=#10739e;" vertex="1" parent="1">
          <mxGeometry x="800" y="1459.5" width="80" height="20" as="geometry" />
        </mxCell>
        <mxCell id="tzSfl47Rc7GnbTvQKxjG-216" value="0" style="rounded=0;whiteSpace=wrap;html=1;fillColor=#b1ddf0;strokeColor=#10739e;" vertex="1" parent="1">
          <mxGeometry x="800" y="1479.5" width="80" height="20" as="geometry" />
        </mxCell>
        <mxCell id="tzSfl47Rc7GnbTvQKxjG-217" value="i" style="text;html=1;align=center;verticalAlign=middle;resizable=0;points=[];autosize=1;fillColor=#b0e3e6;strokeColor=#0e8088;" vertex="1" parent="1">
          <mxGeometry x="880" y="1459.5" width="20" height="20" as="geometry" />
        </mxCell>
        <mxCell id="tzSfl47Rc7GnbTvQKxjG-218" value="j" style="text;html=1;align=center;verticalAlign=middle;resizable=0;points=[];autosize=1;fillColor=#b0e3e6;strokeColor=#0e8088;" vertex="1" parent="1">
          <mxGeometry x="880" y="1479.5" width="20" height="20" as="geometry" />
        </mxCell>
        <mxCell id="tzSfl47Rc7GnbTvQKxjG-273" style="edgeStyle=orthogonalEdgeStyle;rounded=0;orthogonalLoop=1;jettySize=auto;html=1;" edge="1" parent="1" source="tzSfl47Rc7GnbTvQKxjG-220" target="tzSfl47Rc7GnbTvQKxjG-236">
          <mxGeometry relative="1" as="geometry" />
        </mxCell>
        <mxCell id="tzSfl47Rc7GnbTvQKxjG-220" value="&lt;span style=&quot;font-size: 14px&quot;&gt;&lt;b&gt;iload_1&lt;/b&gt;&lt;/span&gt;" style="text;html=1;align=center;verticalAlign=middle;resizable=0;points=[];autosize=1;" vertex="1" parent="1">
          <mxGeometry x="815" y="1409.5" width="60" height="20" as="geometry" />
        </mxCell>
        <mxCell id="tzSfl47Rc7GnbTvQKxjG-272" style="edgeStyle=orthogonalEdgeStyle;rounded=0;orthogonalLoop=1;jettySize=auto;html=1;entryX=1.022;entryY=0.375;entryDx=0;entryDy=0;entryPerimeter=0;" edge="1" parent="1">
          <mxGeometry relative="1" as="geometry">
            <mxPoint x="1042.5" y="1376.5" as="sourcePoint" />
            <mxPoint x="876.3199999999997" y="1421" as="targetPoint" />
            <Array as="points">
              <mxPoint x="1043" y="1421" />
            </Array>
          </mxGeometry>
        </mxCell>
        <mxCell id="tzSfl47Rc7GnbTvQKxjG-277" style="edgeStyle=orthogonalEdgeStyle;rounded=0;orthogonalLoop=1;jettySize=auto;html=1;entryX=0.5;entryY=1;entryDx=0;entryDy=0;" edge="1" parent="1" source="tzSfl47Rc7GnbTvQKxjG-221" target="tzSfl47Rc7GnbTvQKxjG-269">
          <mxGeometry relative="1" as="geometry" />
        </mxCell>
        <mxCell id="tzSfl47Rc7GnbTvQKxjG-221" value="if_icmpge&lt;br&gt;(弹出栈顶两个值并比较大小)" style="rhombus;whiteSpace=wrap;html=1;dashed=1;fillColor=#fad9d5;strokeColor=#ae4132;" vertex="1" parent="1">
          <mxGeometry x="960" y="1291" width="165" height="82.5" as="geometry" />
        </mxCell>
        <mxCell id="tzSfl47Rc7GnbTvQKxjG-229" value="操作数栈" style="rounded=0;whiteSpace=wrap;html=1;fillColor=#fad7ac;strokeColor=#b46504;" vertex="1" parent="1">
          <mxGeometry x="660" y="1519.5" width="80" height="20" as="geometry" />
        </mxCell>
        <mxCell id="tzSfl47Rc7GnbTvQKxjG-230" value="0" style="rounded=0;whiteSpace=wrap;html=1;fillColor=#fad7ac;strokeColor=#b46504;" vertex="1" parent="1">
          <mxGeometry x="660" y="1539.5" width="80" height="20" as="geometry" />
        </mxCell>
        <mxCell id="tzSfl47Rc7GnbTvQKxjG-231" value="局部变量表" style="rounded=0;whiteSpace=wrap;html=1;fillColor=#b1ddf0;strokeColor=#10739e;" vertex="1" parent="1">
          <mxGeometry x="660" y="1439.5" width="80" height="20" as="geometry" />
        </mxCell>
        <mxCell id="tzSfl47Rc7GnbTvQKxjG-232" value="1" style="rounded=0;whiteSpace=wrap;html=1;fillColor=#b1ddf0;strokeColor=#10739e;" vertex="1" parent="1">
          <mxGeometry x="660" y="1459.5" width="80" height="20" as="geometry" />
        </mxCell>
        <mxCell id="tzSfl47Rc7GnbTvQKxjG-233" value="0" style="rounded=0;whiteSpace=wrap;html=1;fillColor=#b1ddf0;strokeColor=#10739e;" vertex="1" parent="1">
          <mxGeometry x="660" y="1479.5" width="80" height="20" as="geometry" />
        </mxCell>
        <mxCell id="tzSfl47Rc7GnbTvQKxjG-234" value="i" style="text;html=1;align=center;verticalAlign=middle;resizable=0;points=[];autosize=1;fillColor=#b0e3e6;strokeColor=#0e8088;" vertex="1" parent="1">
          <mxGeometry x="740" y="1459.5" width="20" height="20" as="geometry" />
        </mxCell>
        <mxCell id="tzSfl47Rc7GnbTvQKxjG-235" value="j" style="text;html=1;align=center;verticalAlign=middle;resizable=0;points=[];autosize=1;fillColor=#b0e3e6;strokeColor=#0e8088;" vertex="1" parent="1">
          <mxGeometry x="740" y="1479.5" width="20" height="20" as="geometry" />
        </mxCell>
        <mxCell id="tzSfl47Rc7GnbTvQKxjG-274" style="edgeStyle=orthogonalEdgeStyle;rounded=0;orthogonalLoop=1;jettySize=auto;html=1;" edge="1" parent="1" source="tzSfl47Rc7GnbTvQKxjG-236" target="tzSfl47Rc7GnbTvQKxjG-244">
          <mxGeometry relative="1" as="geometry" />
        </mxCell>
        <mxCell id="tzSfl47Rc7GnbTvQKxjG-236" value="&lt;span style=&quot;font-size: 14px&quot;&gt;&lt;b&gt;iinc 1, 1&lt;/b&gt;&lt;/span&gt;" style="text;html=1;align=center;verticalAlign=middle;resizable=0;points=[];autosize=1;" vertex="1" parent="1">
          <mxGeometry x="670" y="1409.5" width="70" height="20" as="geometry" />
        </mxCell>
        <mxCell id="tzSfl47Rc7GnbTvQKxjG-237" value="操作数栈" style="rounded=0;whiteSpace=wrap;html=1;fillColor=#fad7ac;strokeColor=#b46504;" vertex="1" parent="1">
          <mxGeometry x="520" y="1520.5" width="80" height="20" as="geometry" />
        </mxCell>
        <mxCell id="tzSfl47Rc7GnbTvQKxjG-238" value="0" style="rounded=0;whiteSpace=wrap;html=1;fillColor=none;dashed=1;" vertex="1" parent="1">
          <mxGeometry x="520" y="1540.5" width="80" height="20" as="geometry" />
        </mxCell>
        <mxCell id="tzSfl47Rc7GnbTvQKxjG-239" value="局部变量表" style="rounded=0;whiteSpace=wrap;html=1;fillColor=#b1ddf0;strokeColor=#10739e;" vertex="1" parent="1">
          <mxGeometry x="520" y="1440.5" width="80" height="20" as="geometry" />
        </mxCell>
        <mxCell id="tzSfl47Rc7GnbTvQKxjG-240" value="0" style="rounded=0;whiteSpace=wrap;html=1;fillColor=#b1ddf0;strokeColor=#10739e;" vertex="1" parent="1">
          <mxGeometry x="520" y="1460.5" width="80" height="20" as="geometry" />
        </mxCell>
        <mxCell id="tzSfl47Rc7GnbTvQKxjG-241" value="0" style="rounded=0;whiteSpace=wrap;html=1;fillColor=#b1ddf0;strokeColor=#10739e;" vertex="1" parent="1">
          <mxGeometry x="520" y="1480.5" width="80" height="20" as="geometry" />
        </mxCell>
        <mxCell id="tzSfl47Rc7GnbTvQKxjG-242" value="i" style="text;html=1;align=center;verticalAlign=middle;resizable=0;points=[];autosize=1;fillColor=#b0e3e6;strokeColor=#0e8088;" vertex="1" parent="1">
          <mxGeometry x="600" y="1460.5" width="20" height="20" as="geometry" />
        </mxCell>
        <mxCell id="tzSfl47Rc7GnbTvQKxjG-243" value="j" style="text;html=1;align=center;verticalAlign=middle;resizable=0;points=[];autosize=1;fillColor=#b0e3e6;strokeColor=#0e8088;" vertex="1" parent="1">
          <mxGeometry x="600" y="1480.5" width="20" height="20" as="geometry" />
        </mxCell>
        <mxCell id="tzSfl47Rc7GnbTvQKxjG-275" style="edgeStyle=orthogonalEdgeStyle;rounded=0;orthogonalLoop=1;jettySize=auto;html=1;entryX=0.986;entryY=0.475;entryDx=0;entryDy=0;entryPerimeter=0;" edge="1" parent="1" source="tzSfl47Rc7GnbTvQKxjG-244" target="tzSfl47Rc7GnbTvQKxjG-254">
          <mxGeometry relative="1" as="geometry" />
        </mxCell>
        <mxCell id="tzSfl47Rc7GnbTvQKxjG-244" value="&lt;span style=&quot;font-size: 14px&quot;&gt;&lt;b&gt;istore_1&lt;/b&gt;&lt;/span&gt;" style="text;html=1;align=center;verticalAlign=middle;resizable=0;points=[];autosize=1;" vertex="1" parent="1">
          <mxGeometry x="530" y="1409.5" width="70" height="20" as="geometry" />
        </mxCell>
        <mxCell id="tzSfl47Rc7GnbTvQKxjG-246" value="" style="curved=1;endArrow=classic;html=1;exitX=0;exitY=0.5;exitDx=0;exitDy=0;entryX=0;entryY=0.75;entryDx=0;entryDy=0;fillColor=#fad7ac;strokeColor=#b46504;" edge="1" parent="1" source="tzSfl47Rc7GnbTvQKxjG-238" target="tzSfl47Rc7GnbTvQKxjG-240">
          <mxGeometry width="50" height="50" relative="1" as="geometry">
            <mxPoint x="380" y="1550.5" as="sourcePoint" />
            <mxPoint x="430" y="1500.5" as="targetPoint" />
            <Array as="points">
              <mxPoint x="500" y="1540.5" />
              <mxPoint x="500" y="1490.5" />
            </Array>
          </mxGeometry>
        </mxCell>
        <mxCell id="tzSfl47Rc7GnbTvQKxjG-247" value="操作数栈" style="rounded=0;whiteSpace=wrap;html=1;fillColor=#fad7ac;strokeColor=#b46504;" vertex="1" parent="1">
          <mxGeometry x="395" y="1520.5" width="80" height="20" as="geometry" />
        </mxCell>
        <mxCell id="tzSfl47Rc7GnbTvQKxjG-249" value="局部变量表" style="rounded=0;whiteSpace=wrap;html=1;fillColor=#b1ddf0;strokeColor=#10739e;" vertex="1" parent="1">
          <mxGeometry x="395" y="1440.5" width="80" height="20" as="geometry" />
        </mxCell>
        <mxCell id="tzSfl47Rc7GnbTvQKxjG-250" value="0" style="rounded=0;whiteSpace=wrap;html=1;fillColor=#b1ddf0;strokeColor=#10739e;" vertex="1" parent="1">
          <mxGeometry x="395" y="1460.5" width="80" height="20" as="geometry" />
        </mxCell>
        <mxCell id="tzSfl47Rc7GnbTvQKxjG-251" value="1" style="rounded=0;whiteSpace=wrap;html=1;fillColor=#b1ddf0;strokeColor=#10739e;" vertex="1" parent="1">
          <mxGeometry x="395" y="1480.5" width="80" height="20" as="geometry" />
        </mxCell>
        <mxCell id="tzSfl47Rc7GnbTvQKxjG-252" value="i" style="text;html=1;align=center;verticalAlign=middle;resizable=0;points=[];autosize=1;fillColor=#b0e3e6;strokeColor=#0e8088;" vertex="1" parent="1">
          <mxGeometry x="475" y="1460.5" width="20" height="20" as="geometry" />
        </mxCell>
        <mxCell id="tzSfl47Rc7GnbTvQKxjG-253" value="j" style="text;html=1;align=center;verticalAlign=middle;resizable=0;points=[];autosize=1;fillColor=#b0e3e6;strokeColor=#0e8088;" vertex="1" parent="1">
          <mxGeometry x="475" y="1480.5" width="20" height="20" as="geometry" />
        </mxCell>
        <mxCell id="tzSfl47Rc7GnbTvQKxjG-276" style="edgeStyle=orthogonalEdgeStyle;rounded=0;orthogonalLoop=1;jettySize=auto;html=1;" edge="1" parent="1" source="tzSfl47Rc7GnbTvQKxjG-254" target="tzSfl47Rc7GnbTvQKxjG-192">
          <mxGeometry relative="1" as="geometry">
            <Array as="points">
              <mxPoint x="440" y="1380" />
              <mxPoint x="705" y="1380" />
            </Array>
          </mxGeometry>
        </mxCell>
        <mxCell id="tzSfl47Rc7GnbTvQKxjG-254" value="&lt;span style=&quot;font-size: 14px&quot;&gt;&lt;b&gt;iinc 2, 1&lt;/b&gt;&lt;/span&gt;" style="text;html=1;align=center;verticalAlign=middle;resizable=0;points=[];autosize=1;" vertex="1" parent="1">
          <mxGeometry x="405" y="1409.5" width="70" height="20" as="geometry" />
        </mxCell>
        <mxCell id="tzSfl47Rc7GnbTvQKxjG-269" value="while循环结束" style="rounded=1;whiteSpace=wrap;html=1;dashed=1;fillColor=#fad9d5;strokeColor=#ae4132;" vertex="1" parent="1">
          <mxGeometry x="982" y="1180" width="120" height="60" as="geometry" />
        </mxCell>
        <mxCell id="tzSfl47Rc7GnbTvQKxjG-278" value="" style="whiteSpace=wrap;html=1;aspect=fixed;dashed=1;fillColor=none;" vertex="1" parent="1">
          <mxGeometry x="580" y="1185" width="80" height="80" as="geometry" />
        </mxCell>
        <mxCell id="tzSfl47Rc7GnbTvQKxjG-279" value="" style="rounded=0;whiteSpace=wrap;html=1;dashed=1;fillColor=none;" vertex="1" parent="1">
          <mxGeometry x="492" y="1398.75" width="426" height="183.5" as="geometry" />
        </mxCell>
        <mxCell id="tzSfl47Rc7GnbTvQKxjG-280" value="&lt;b&gt;&lt;font style=&quot;font-size: 14px&quot;&gt;i = i ++&lt;/font&gt;&lt;/b&gt;" style="text;html=1;align=center;verticalAlign=middle;resizable=0;points=[];autosize=1;" vertex="1" parent="1">
          <mxGeometry x="665" y="1588" width="54" height="19" as="geometry" />
        </mxCell>
      </root>
    </mxGraphModel>
  </diagram>
</mxfile>
